<svg xmlns="http://www.w3.org/2000/svg" version="1.1" viewBox="143 213.09 465.99 325.82">
 <g>
  <path fill="#db3a13" d="m606.64 369.84c-44.992-115.55-148.71-156.75-230.64-156.75s-185.64 41.203-230.63 156.75l-2.3672 6.1562 2.3672 6.1562c44.992 115.55 148.7 156.76 230.63 156.76s185.64-41.203 230.63-156.75l2.3672-6.1562zm-230.64-69.141c41.676 0 75.301 33.625 75.301 75.301 0 41.672-33.625 75.297-75.301 75.297-41.672 0-75.297-33.625-75.297-75.301 0-41.672 33.625-75.297 75.297-75.297zm-196.54 75.297c39.781-95.188 127.39-129.29 196.54-129.29 83.352 0 98.977 59.199 101.82 77.668 0.94531 5.2109 0.94531 10.891 0.94531 16.574-14.203-42.621-54.934-73.879-102.77-73.879-11.367 0-22.258 1.8945-32.676 5.2109-0.47266 0-0.94531 0-1.8945 0.47266-77.668 24.625-109.87 100.87-100.4 160.07 1.8945 11.367 4.7344 22.258 9.9453 33.152-29.363-20.367-54.461-49.73-71.512-89.984zm196.54 129.29c-83.352 0-98.977-59.199-101.82-77.668-0.94531-5.2109-0.94531-10.891-0.94531-16.574 14.207 43.094 54.934 73.879 102.77 73.879 11.367 0 22.258-1.8945 32.203-4.7344 0.94531 0 1.4219-0.47266 2.3672-0.47266 77.668-24.629 109.88-100.88 100.4-160.55-1.8945-11.367-4.7344-22.258-9.9453-33.152 28.887 20.363 54.461 49.727 71.512 89.98-39.781 95.191-127.39 129.29-196.54 129.29z"/>
  <path fill="#fbf71a" d="m427.15 376c0 28.25-22.898 51.148-51.148 51.148-28.246 0-51.145-22.898-51.145-51.148 0-28.246 22.898-51.145 51.145-51.145 28.25 0 51.148 22.898 51.148 51.145"/>
 </g>
</svg>
